<svg xmlns="http://www.w3.org/2000/svg" xmlns:xlink="http://www.w3.org/1999/xlink" version="1.1" xml:space="preserve" color="black" width="2020.00" height="174.00" viewBox="-8.00 42.36 1616.00 139.07">
  <rect id="white-background" x="-8.00" y="42.36" width="1616.00" height="139.07" fill="white"/>
<title>abc2svg - 6.</title><style type="text/css">
.fill {fill: currentColor}
.stroke {stroke: currentColor; fill: none; stroke-width: .7}
.f1_1 {font:italic 14px serif}
</style><defs>
<path id="pclef" class="stroke" style="stroke-width:1.4" d="m-4 10h5.4v-20h-5.4v20"/>
<ellipse id="hd" rx="4.1" ry="2.9" transform="rotate(-20)" class="fill"/>
<path id="Xhead" d="m-3,-3 l6,6 m0,-6 l-6,6" class="stroke" style="stroke-width:1.2"/>
<circle id="opend" class="stroke" cx="0" cy="-3" r="2.5"/>
<g id="accent" class="stroke">
	<path d="m-4 0l8 -2l-8 -2" style="stroke-width:1.2"/>
</g>
</defs><g transform="scale(2)"><path class="stroke" d="m800.00 86.04v-24.00"/>
<path class="stroke" d="m797.00 86.04v-24.00"/>
<path class="stroke" d="m0.00 86.04 h800.00m-800.00 -6h800.00m-800.00 -6h800.00m-800.00 -6h800.00m-800.00 -6h800.00"/>
<use x="12.00" y="74.04" xlink:href="#pclef"/>
<g style="font:bold 16px serif" transform="translate(30.50,86.04) scale(1.2,1)">
	<text y="-12" text-anchor="middle">4</text>
	<text text-anchor="middle">4</text>
</g>
<path class="fill" d="m51.66 41.84 l92.08 0.00v3.20l-92.08 0.00"/>
<path class="stroke" d="m52.00 83.04v-40.20"/>
<use x="48.50" y="83.04" xlink:href="#hd"/>
<use x="48.50" y="59.04" xlink:href="#Xhead"/>
<rect style="fill: transparent;" class="abcr" id="abcNoteNum_1_0" x="42.00" y="53.04" width="13.00" height="42.00"/>
<path class="stroke" d="m143.40 59.04v-16.20"/>
<use x="139.90" y="59.04" xlink:href="#Xhead"/>
<rect style="fill: transparent;" class="abcr" id="abcNoteNum_1_1" x="133.40" y="53.04" width="13.00" height="42.00"/>
<path class="fill" d="m244.61 41.84 l92.08 0.00v3.20l-92.08 0.00"/>
<path class="stroke" d="m244.95 71.04v-28.20"/>
<use x="241.45" y="71.04" xlink:href="#hd"/>
<use x="241.45" y="59.04" xlink:href="#Xhead"/>
<rect style="fill: transparent;" class="abcr" id="abcNoteNum_1_2" x="234.95" y="53.04" width="13.00" height="42.00"/>
<path class="stroke" d="m336.35 59.04v-16.20"/>
<use x="332.85" y="59.04" xlink:href="#Xhead"/>
<rect style="fill: transparent;" class="abcr" id="abcNoteNum_1_3" x="326.35" y="53.04" width="13.00" height="42.00"/>
<path class="fill" d="m437.57 41.84 l92.08 0.00v3.20l-92.08 0.00"/>
<path class="stroke" d="m437.91 83.04v-40.20"/>
<use x="434.41" y="83.04" xlink:href="#hd"/>
<use x="434.41" y="59.04" xlink:href="#Xhead"/>
<rect style="fill: transparent;" class="abcr" id="abcNoteNum_1_4" x="427.91" y="53.04" width="13.00" height="42.00"/>
<path class="stroke" d="m529.30 59.04v-16.20"/>
<use x="525.80" y="59.04" xlink:href="#Xhead"/>
<rect style="fill: transparent;" class="abcr" id="abcNoteNum_1_5" x="519.30" y="53.04" width="13.00" height="42.00"/>
<path class="fill" d="m630.52 41.84 l92.08 0.00v3.20l-92.08 0.00"/>
<path class="stroke" d="m630.86 71.04v-28.20"/>
<use x="627.36" y="71.04" xlink:href="#hd"/>
<use x="627.36" y="59.04" xlink:href="#Xhead"/>
<rect style="fill: transparent;" class="abcr" id="abcNoteNum_1_6" x="620.86" y="53.04" width="13.00" height="42.00"/>
<path class="stroke" d="m722.26 59.04v-16.20"/>
<use x="718.76" y="59.04" xlink:href="#Xhead"/>
<rect style="fill: transparent;" class="abcr" id="abcNoteNum_1_7" x="712.26" y="53.04" width="13.00" height="42.00"/>
<use x="48.50" y="37.34" xlink:href="#opend"/>
<use x="139.90" y="37.34" xlink:href="#opend"/>
<use x="241.45" y="37.34" xlink:href="#accent"/>
<use x="241.45" y="31.34" xlink:href="#opend"/>
<use x="332.85" y="37.34" xlink:href="#opend"/>
<use x="434.41" y="37.34" xlink:href="#opend"/>
<use x="525.80" y="37.34" xlink:href="#opend"/>
<use x="627.36" y="37.34" xlink:href="#accent"/>
<use x="627.36" y="31.34" xlink:href="#opend"/>
<use x="718.76" y="37.34" xlink:href="#opend"/>
</g></svg>