<svg xmlns="http://www.w3.org/2000/svg" xmlns:xlink="http://www.w3.org/1999/xlink" version="1.1" xml:space="preserve" color="black" width="2020.00" height="174.00" viewBox="-8.00 42.36 1616.00 139.07">
  <rect id="white-background" x="-8.00" y="42.36" width="1616.00" height="139.07" fill="white"/>
<title>abc2svg - 6.</title><style type="text/css">
.fill {fill: currentColor}
.stroke {stroke: currentColor; fill: none; stroke-width: .7}
.f1_1 {font:italic 14px serif}
</style><defs>
<path id="pclef" class="stroke" style="stroke-width:1.4" d="m-4 10h5.4v-20h-5.4v20"/>
<ellipse id="hd" rx="4.1" ry="2.9" transform="rotate(-20)" class="fill"/>
<path id="Xhead" d="m-3,-3 l6,6 m0,-6 l-6,6" class="stroke" style="stroke-width:1.2"/>
<use id="ghd" transform="translate(4.5,0) scale(0.5)" xlink:href="#hd"/>
<path id="hl" class="stroke" d="m-6 0h12"/>
<circle id="opend" class="stroke" cx="0" cy="-3" r="2.5"/>
<g id="accent" class="stroke">
	<path d="m-4 0l8 -2l-8 -2" style="stroke-width:1.2"/>
</g>
</defs><g transform="scale(2)"><path class="stroke" d="m800.00 86.04v-24.00"/>
<path class="stroke" d="m797.00 86.04v-24.00"/>
<path class="stroke" d="m0.00 86.04 h800.00m-800.00 -6h800.00m-800.00 -6h800.00m-800.00 -6h800.00m-800.00 -6h800.00"/>
<use x="12.00" y="74.04" xlink:href="#pclef"/>
<g style="font:bold 16px serif" transform="translate(30.50,86.04) scale(1.2,1)">
	<text y="-12" text-anchor="middle">4</text>
	<text text-anchor="middle">4</text>
</g>
<path class="fill" d="m51.66 41.84 l89.27 0.00v3.20l-89.27 0.00"/>
<path class="stroke" d="m52.00 83.04v-40.20"/>
<use x="48.50" y="83.04" xlink:href="#hd"/>
<use x="48.50" y="59.04" xlink:href="#Xhead"/>
<rect style="fill: transparent;" class="abcr" id="abcNoteNum_1_0" x="42.00" y="53.04" width="13.00" height="42.00"/>
<path class="stroke" d="m140.59 59.04v-16.20"/>
<use x="137.09" y="59.04" xlink:href="#Xhead"/>
<rect style="fill: transparent;" class="abcr" id="abcNoteNum_1_1" x="130.59" y="53.04" width="13.00" height="42.00"/>
<path class="fill" d="m238.68 41.84 l89.27 0.00v3.20l-89.27 0.00"/>
<path class="stroke" d="m239.02 71.04v-28.20"/>
<use x="235.52" y="71.04" xlink:href="#hd"/>
<use x="235.52" y="59.04" xlink:href="#Xhead"/>
<rect style="fill: transparent;" class="abcr" id="abcNoteNum_1_2" x="229.02" y="53.04" width="13.00" height="42.00"/>
<path class="stroke" d="m327.61 59.04v-16.20"/>
<use x="324.11" y="59.04" xlink:href="#Xhead"/>
<rect style="fill: transparent;" class="abcr" id="abcNoteNum_1_3" x="317.61" y="53.04" width="13.00" height="42.00"/>
<path class="fill" d="m425.70 38.84 l151.87 0.00v3.20l-151.87 0.00"/>
<path class="fill" d="m514.63 43.84 l62.61 0.00v3.20l-62.61 0.00"/>
<path class="stroke" d="m426.04 83.04v-43.20"/>
<use x="422.54" y="83.04" xlink:href="#hd"/>
<use x="422.54" y="59.04" xlink:href="#Xhead"/>
<rect style="fill: transparent;" class="abcr" id="abcNoteNum_1_4" x="416.04" y="53.04" width="13.00" height="42.00"/>
<path class="stroke" d="m514.63 59.04v-19.20"/>
<use x="511.13" y="59.04" xlink:href="#Xhead"/>
<rect style="fill: transparent;" class="abcr" id="abcNoteNum_1_5" x="504.63" y="53.04" width="13.00" height="42.00"/>
<path class="stroke" d="m577.23 83.04v-43.20"/>
<use x="573.73" y="83.04" xlink:href="#hd"/>
<rect style="fill: transparent;" class="abcr" id="abcNoteNum_1_6" x="567.23" y="53.04" width="13.00" height="42.00"/>
<path class="stroke" d="m633.90 71.04v-14.00"/>
<path class="fill" d="M633.90 57.04c0.6 3.4 5.6 3.8 3 10  c1.2 -4.4 -1.4 -7 -3 -7 "/>
<use x="627.80" y="71.04" xlink:href="#ghd"/>
<path class="stroke" d="m631.30 67.04l9.00 -5.00"/>
<rect style="fill: transparent;" class="abcr" id="abcNoteNum_1_7" x="623.80" y="53.04" width="21.50" height="42.00"/>
<path class="stroke" d="m632.30 76.04 c2.90 3.00 11.60 3.00 14.50 0.00"/>
<path class="fill" d="m650.96 36.84 l63.29 0.00v3.20l-63.29 0.00"/>
<path class="fill" d="m657.30 41.84 l-6.00 0.00v3.20l6.00 0.00"/>
<path class="stroke" d="m651.30 71.04v-33.20"/>
<use x="647.80" y="71.04" xlink:href="#hd"/>
<rect style="fill: transparent;" class="abcr" id="abcNoteNum_1_7" x="645.80" y="53.04" width="8.50" height="42.00"/>
<use x="710.40" y="50.04" xlink:href="#hl"/>
<use x="710.40" y="56.04" xlink:href="#hl"/>
<path class="stroke" d="m713.90 83.04v-45.20"/>
<use x="710.40" y="83.04" xlink:href="#hd"/>
<circle class="fill" cx="718.10" cy="83.04" r="1.2"/>
<use x="710.40" y="50.04" xlink:href="#Xhead"/>
<circle class="fill" cx="718.10" cy="47.04" r="1.2"/>
<rect style="fill: transparent;" class="abcr" id="abcNoteNum_1_8" x="703.90" y="53.04" width="20.50" height="42.00"/>
<use x="48.50" y="37.34" xlink:href="#opend"/>
<use x="137.09" y="37.34" xlink:href="#opend"/>
<use x="235.52" y="37.34" xlink:href="#accent"/>
<use x="235.52" y="31.34" xlink:href="#opend"/>
<use x="324.11" y="37.34" xlink:href="#opend"/>
<use x="422.54" y="34.34" xlink:href="#opend"/>
<use x="511.13" y="34.34" xlink:href="#opend"/>
<use x="647.80" y="32.34" xlink:href="#accent"/>
</g></svg>