<svg xmlns="http://www.w3.org/2000/svg" xmlns:xlink="http://www.w3.org/1999/xlink" version="1.1" xml:space="preserve" color="black" width="2020.00" height="162.00" viewBox="-8.00 37.60 1616.00 129.60">
  <rect id="white-background" x="-8.00" y="37.60" width="1616.00" height="129.60" fill="white"/>
<title>abc2svg - 6.</title><style type="text/css">
.fill {fill: currentColor}
.stroke {stroke: currentColor; fill: none; stroke-width: .7}
.f1_1 {font:italic 14px serif}
</style><defs>
<path id="pclef" class="stroke" style="stroke-width:1.4" d="m-4 10h5.4v-20h-5.4v20"/>
<ellipse id="hd" rx="4.1" ry="2.9" transform="rotate(-20)" class="fill"/>
<path id="Xhead" d="m-3,-3 l6,6 m0,-6 l-6,6" class="stroke" style="stroke-width:1.2"/>
<g id="accent" class="stroke">
	<path d="m-4 0l8 -2l-8 -2" style="stroke-width:1.2"/>
</g>
</defs><g transform="scale(2)"><path class="stroke" d="m800.00 79.04v-24.00"/>
<path class="stroke" d="m797.00 79.04v-24.00"/>
<path class="stroke" d="m0.00 79.04 h800.00m-800.00 -6h800.00m-800.00 -6h800.00m-800.00 -6h800.00m-800.00 -6h800.00"/>
<use x="12.00" y="67.04" xlink:href="#pclef"/>
<g style="font:bold 16px serif" transform="translate(30.50,79.04) scale(1.2,1)">
	<text y="-12" text-anchor="middle">4</text>
	<text text-anchor="middle">4</text>
</g>
<path class="fill" d="m51.66 31.84 l137.17 0.00v3.20l-137.17 0.00"/>
<path class="fill" d="m131.97 36.84 l56.52 0.00v3.20l-56.52 0.00"/>
<path class="stroke" d="m52.00 76.04v-43.20"/>
<use x="48.50" y="76.04" xlink:href="#hd"/>
<use x="48.50" y="52.04" xlink:href="#Xhead"/>
<rect style="fill: transparent;" class="abcr" id="abcNoteNum_1_0" x="42.00" y="46.04" width="13.00" height="42.00"/>
<path class="stroke" d="m131.97 52.04v-19.20"/>
<use x="128.47" y="52.04" xlink:href="#Xhead"/>
<rect style="fill: transparent;" class="abcr" id="abcNoteNum_1_1" x="121.97" y="46.04" width="13.00" height="42.00"/>
<path class="stroke" d="m188.49 76.04v-43.20"/>
<use x="184.99" y="76.04" xlink:href="#hd"/>
<rect style="fill: transparent;" class="abcr" id="abcNoteNum_1_2" x="178.49" y="46.04" width="13.00" height="42.00"/>
<path class="fill" d="m250.94 31.84 l170.23 0.00v3.20l-170.23 0.00"/>
<path class="fill" d="m251.28 36.84 l169.55 0.00v3.20l-169.55 0.00"/>
<path class="stroke" d="m251.28 64.04v-31.20"/>
<use x="247.78" y="64.04" xlink:href="#hd"/>
<use x="247.78" y="52.04" xlink:href="#Xhead"/>
<rect style="fill: transparent;" class="abcr" id="abcNoteNum_1_3" x="241.28" y="46.04" width="13.00" height="42.00"/>
<path class="stroke" d="m307.80 76.04v-43.20"/>
<use x="304.30" y="76.04" xlink:href="#hd"/>
<rect style="fill: transparent;" class="abcr" id="abcNoteNum_1_4" x="297.80" y="46.04" width="13.00" height="42.00"/>
<path class="stroke" d="m364.31 52.04v-19.20"/>
<use x="360.81" y="52.04" xlink:href="#Xhead"/>
<rect style="fill: transparent;" class="abcr" id="abcNoteNum_1_5" x="354.31" y="46.04" width="13.00" height="42.00"/>
<path class="stroke" d="m420.83 76.04v-43.20"/>
<use x="417.33" y="76.04" xlink:href="#hd"/>
<rect style="fill: transparent;" class="abcr" id="abcNoteNum_1_6" x="410.83" y="46.04" width="13.00" height="42.00"/>
<path class="fill" d="m483.28 36.84 l80.65 0.00v3.20l-80.65 0.00"/>
<path class="stroke" d="m483.62 76.04v-38.20"/>
<use x="480.12" y="76.04" xlink:href="#hd"/>
<use x="480.12" y="52.04" xlink:href="#Xhead"/>
<rect style="fill: transparent;" class="abcr" id="abcNoteNum_1_7" x="473.62" y="46.04" width="13.00" height="42.00"/>
<path class="stroke" d="m563.59 76.04v-38.20"/>
<use x="560.09" y="76.04" xlink:href="#hd"/>
<use x="560.09" y="52.04" xlink:href="#Xhead"/>
<rect style="fill: transparent;" class="abcr" id="abcNoteNum_1_8" x="553.59" y="46.04" width="13.00" height="42.00"/>
<path class="fill" d="m652.11 34.84 l80.65 0.00v3.20l-80.65 0.00"/>
<path class="stroke" d="m652.45 64.04v-28.20"/>
<use x="648.95" y="64.04" xlink:href="#hd"/>
<use x="648.95" y="52.04" xlink:href="#Xhead"/>
<rect style="fill: transparent;" class="abcr" id="abcNoteNum_1_9" x="642.45" y="46.04" width="13.00" height="42.00"/>
<path class="stroke" d="m732.42 52.04v-16.20"/>
<use x="728.92" y="52.04" xlink:href="#Xhead"/>
<rect style="fill: transparent;" class="abcr" id="abcNoteNum_1_10" x="722.42" y="46.04" width="13.00" height="42.00"/>
<use x="247.78" y="27.34" xlink:href="#accent"/>
<use x="648.95" y="30.34" xlink:href="#accent"/>
</g></svg>