<svg xmlns="http://www.w3.org/2000/svg" xmlns:xlink="http://www.w3.org/1999/xlink" version="1.1" xml:space="preserve" color="black" width="2020.00" height="186.00" viewBox="-8.00 42.44 1616.00 148.94">
  <rect id="white-background" x="-8.00" y="42.44" width="1616.00" height="148.94" fill="white"/>
<title>abc2svg - 6.</title><style type="text/css">
.fill {fill: currentColor}
.stroke {stroke: currentColor; fill: none; stroke-width: .7}
.f1_1 {font:italic 14px serif}
.f2_1 {font:16px calibri}
</style><defs>
<path id="pclef" class="stroke" style="stroke-width:1.4" d="m-4 10h5.4v-20h-5.4v20"/>
<ellipse id="hd" rx="4.1" ry="2.9" transform="rotate(-20)" class="fill"/>
<path id="Xhead" d="m-3,-3 l6,6 m0,-6 l-6,6" class="stroke" style="stroke-width:1.2"/>
<g id="accent" class="stroke">
	<path d="m-4 0l8 -2l-8 -2" style="stroke-width:1.2"/>
</g>
<circle id="opend" class="stroke" cx="0" cy="-3" r="2.5"/>
</defs><g transform="scale(2)"><path class="stroke" d="m800.00 85.04v-24.00"/>
<path class="stroke" d="m797.00 85.04v-24.00"/>
<path class="stroke" d="m0.00 85.04 h800.00m-800.00 -6h800.00m-800.00 -6h800.00m-800.00 -6h800.00m-800.00 -6h800.00"/>
<use x="12.00" y="73.04" xlink:href="#pclef"/>
<g style="font:bold 16px serif" transform="translate(30.50,85.04) scale(1.2,1)">
	<text y="-12" text-anchor="middle">4</text>
	<text text-anchor="middle">4</text>
</g>
<path class="fill" d="m51.66 37.84 l144.86 0.00v3.20l-144.86 0.00"/>
<path class="fill" d="m52.00 42.84 l144.18 0.00v3.20l-144.18 0.00"/>
<path class="stroke" d="m52.00 82.04v-43.20"/>
<use x="48.50" y="82.04" xlink:href="#hd"/>
<use x="48.50" y="58.04" xlink:href="#Xhead"/>
<rect style="fill: transparent;" class="abcr" id="abcNoteNum_1_0" x="42.00" y="52.04" width="13.00" height="42.00"/>
<path class="stroke" d="m100.06 70.04v-31.20"/>
<use x="96.56" y="70.04" xlink:href="#hd"/>
<rect style="fill: transparent;" class="abcr" id="abcNoteNum_1_1" x="90.06" y="52.04" width="13.00" height="42.00"/>
<path class="stroke" d="m148.12 58.04v-19.20"/>
<use x="144.62" y="58.04" xlink:href="#Xhead"/>
<rect style="fill: transparent;" class="abcr" id="abcNoteNum_1_2" x="138.12" y="52.04" width="13.00" height="42.00"/>
<path class="stroke" d="m196.18 82.04v-43.20"/>
<use x="192.68" y="82.04" xlink:href="#hd"/>
<rect style="fill: transparent;" class="abcr" id="abcNoteNum_1_3" x="186.18" y="52.04" width="13.00" height="42.00"/>
<path class="fill" d="m249.23 41.84 l116.74 0.00v3.20l-116.74 0.00"/>
<path class="fill" d="m317.58 46.84 l48.06 0.00v3.20l-48.06 0.00"/>
<path class="stroke" d="m249.57 70.04v-27.20"/>
<use x="246.07" y="70.04" xlink:href="#hd"/>
<use x="246.07" y="58.04" xlink:href="#Xhead"/>
<rect style="fill: transparent;" class="abcr" id="abcNoteNum_1_4" x="239.57" y="52.04" width="13.00" height="42.00"/>
<path class="stroke" d="m317.58 70.04v-27.20"/>
<use x="314.08" y="70.04" xlink:href="#hd"/>
<use x="314.08" y="58.04" xlink:href="#Xhead"/>
<rect style="fill: transparent;" class="abcr" id="abcNoteNum_1_5" x="307.58" y="52.04" width="13.00" height="42.00"/>
<path class="stroke" d="m365.63 88.04v-45.20"/>
<use x="362.13" y="88.04" xlink:href="#Xhead"/>
<use x="362.13" y="82.04" xlink:href="#hd"/>
<rect style="fill: transparent;" class="abcr" id="abcNoteNum_1_6" x="355.63" y="52.04" width="13.00" height="42.00"/>
<path class="fill" d="m418.69 37.84 l144.86 0.00v3.20l-144.86 0.00"/>
<path class="fill" d="m419.03 42.84 l144.18 0.00v3.20l-144.18 0.00"/>
<path class="stroke" d="m419.03 58.04v-19.20"/>
<use x="415.53" y="58.04" xlink:href="#Xhead"/>
<rect style="fill: transparent;" class="abcr" id="abcNoteNum_1_7" x="409.03" y="52.04" width="13.00" height="42.00"/>
<path class="stroke" d="m467.09 70.04v-31.20"/>
<use x="463.59" y="70.04" xlink:href="#hd"/>
<rect style="fill: transparent;" class="abcr" id="abcNoteNum_1_8" x="457.09" y="52.04" width="13.00" height="42.00"/>
<path class="stroke" d="m515.15 82.04v-43.20"/>
<use x="511.65" y="82.04" xlink:href="#hd"/>
<use x="511.65" y="58.04" xlink:href="#Xhead"/>
<rect style="fill: transparent;" class="abcr" id="abcNoteNum_1_9" x="505.15" y="52.04" width="13.00" height="42.00"/>
<path class="stroke" d="m563.21 70.04v-31.20"/>
<use x="559.71" y="70.04" xlink:href="#hd"/>
<rect style="fill: transparent;" class="abcr" id="abcNoteNum_1_10" x="553.21" y="52.04" width="13.00" height="42.00"/>
<path class="fill" d="m616.27 37.84 l144.86 0.00v3.20l-144.86 0.00"/>
<path class="fill" d="m616.61 42.84 l144.18 0.00v3.20l-144.18 0.00"/>
<path class="stroke" d="m616.61 70.04v-31.20"/>
<use x="613.11" y="70.04" xlink:href="#hd"/>
<use x="613.11" y="58.04" xlink:href="#Xhead"/>
<rect style="fill: transparent;" class="abcr" id="abcNoteNum_1_11" x="606.61" y="52.04" width="13.00" height="42.00"/>
<path class="stroke" d="m664.66 82.04v-43.20"/>
<use x="661.16" y="82.04" xlink:href="#hd"/>
<rect style="fill: transparent;" class="abcr" id="abcNoteNum_1_12" x="654.66" y="52.04" width="13.00" height="42.00"/>
<path class="stroke" d="m712.72 58.04v-19.20"/>
<use x="709.22" y="58.04" xlink:href="#Xhead"/>
<rect style="fill: transparent;" class="abcr" id="abcNoteNum_1_13" x="702.72" y="52.04" width="13.00" height="42.00"/>
<path class="stroke" d="m760.78 70.04v-31.20"/>
<use x="757.28" y="70.04" xlink:href="#hd"/>
<rect style="fill: transparent;" class="abcr" id="abcNoteNum_1_14" x="750.78" y="52.04" width="13.00" height="42.00"/>
<use x="96.56" y="33.34" xlink:href="#accent"/>
<use x="246.07" y="37.34" xlink:href="#accent"/>
<use x="314.08" y="37.34" xlink:href="#accent"/>
<use x="314.08" y="31.34" xlink:href="#opend"/>
<text style="font:14px serif" x="455.59" y="72.04">(</text>
<text style="font:14px serif" x="467.59" y="72.04">)</text>
<text style="font:14px serif" x="551.71" y="72.04">(</text>
<text style="font:14px serif" x="563.71" y="72.04">)</text>
<use x="613.11" y="33.34" xlink:href="#accent"/>
<text style="font:14px serif" x="749.28" y="72.04">(</text>
<text style="font:14px serif" x="761.28" y="72.04">)</text>
</g></svg>