<svg xmlns="http://www.w3.org/2000/svg" xmlns:xlink="http://www.w3.org/1999/xlink" version="1.1" xml:space="preserve" color="black" width="2020.00" height="164.00" viewBox="-8.00 37.67 1616.00 131.46">
  <rect id="white-background" x="-8.00" y="37.67" width="1616.00" height="131.46" fill="white"/>
<title>abc2svg - 6.</title><style type="text/css">
.fill {fill: currentColor}
.stroke {stroke: currentColor; fill: none; stroke-width: .7}
.f1_1 {font:italic 14px serif}
.f2_1 {font:16px calibri}
</style><defs>
<path id="pclef" class="stroke" style="stroke-width:1.4" d="m-4 10h5.4v-20h-5.4v20"/>
<ellipse id="hd" rx="4.1" ry="2.9" transform="rotate(-20)" class="fill"/>
<path id="Xhead" d="m-3,-3 l6,6 m0,-6 l-6,6" class="stroke" style="stroke-width:1.2"/>
<path id="r8e" class="fill" d="m 0 0  c-1.5 1.5 -2.4 2 -3.6 2  2.4 -2.8 -2.8 -4 -2.8 -1.2  0 2.7 4.3 2.4 5.9 0.6"/>
<g id="r8">
	<path d="m3.3 -4l-3.4 9.6" class="stroke"/>
	<use x="3.4" y="-4" xlink:href="#r8e"/>
</g>
<circle id="opend" class="stroke" cx="0" cy="-3" r="2.5"/>
</defs><g transform="scale(2)"><g transform="translate(0,58.70)">
<text style="font:italic 12px serif" x="113.21" y="-22.86" text-anchor="middle">3</text>
"<text style="font:italic 12px serif" x="302.84" y="-22.86" text-anchor="middle">3</text>
"<text style="font:italic 12px serif" x="492.47" y="-27.36" text-anchor="middle">3</text>
"<text style="font:italic 12px serif" x="682.10" y="-22.86" text-anchor="middle">3</text>
"</g>
<path class="stroke" d="m800.00 80.04v-24.00"/>
<path class="stroke" d="m797.00 80.04v-24.00"/>
<path class="stroke" d="m0.00 80.04 h800.00m-800.00 -6h800.00m-800.00 -6h800.00m-800.00 -6h800.00m-800.00 -6h800.00"/>
<use x="12.00" y="68.04" xlink:href="#pclef"/>
<g style="font:bold 16px serif" transform="translate(30.50,80.04) scale(1.2,1)">
	<text y="-12" text-anchor="middle">4</text>
	<text text-anchor="middle">4</text>
</g>
<path class="fill" d="m51.66 37.84 l127.10 0.00v3.20l-127.10 0.00"/>
<path class="stroke" d="m52.00 77.04v-38.20"/>
<use x="48.50" y="77.04" xlink:href="#hd"/>
<use x="48.50" y="53.04" xlink:href="#Xhead"/>
<rect style="fill: transparent;" class="abcr" id="abcNoteNum_1_0" x="42.00" y="47.04" width="13.00" height="42.00"/>
<use x="111.71" y="68.04" xlink:href="#r8"/>
<path class="stroke" d="m178.42 77.04v-38.20"/>
<use x="174.92" y="77.04" xlink:href="#hd"/>
<use x="174.92" y="53.04" xlink:href="#Xhead"/>
<rect style="fill: transparent;" class="abcr" id="abcNoteNum_1_1" x="168.42" y="47.04" width="13.00" height="42.00"/>
<path class="fill" d="m241.29 37.84 l127.10 0.00v3.20l-127.10 0.00"/>
<path class="stroke" d="m241.63 77.04v-38.20"/>
<use x="238.13" y="77.04" xlink:href="#hd"/>
<use x="238.13" y="65.04" xlink:href="#hd"/>
<use x="238.13" y="53.04" xlink:href="#Xhead"/>
<rect style="fill: transparent;" class="abcr" id="abcNoteNum_1_2" x="231.63" y="47.04" width="13.00" height="42.00"/>
<use x="301.34" y="68.04" xlink:href="#r8"/>
<path class="stroke" d="m368.05 77.04v-38.20"/>
<use x="364.55" y="77.04" xlink:href="#hd"/>
<text style="font:14px serif" x="356.55" y="68.04">(</text>
<text style="font:14px serif" x="368.55" y="68.04">)</text>
<use x="364.55" y="65.04" xlink:href="#hd"/>
<use x="364.55" y="53.04" xlink:href="#Xhead"/>
<rect style="fill: transparent;" class="abcr" id="abcNoteNum_1_3" x="358.05" y="47.04" width="13.00" height="42.00"/>
<path class="fill" d="m430.92 37.84 l127.10 0.00v3.20l-127.10 0.00"/>
<path class="stroke" d="m431.26 77.04v-38.20"/>
<use x="427.76" y="77.04" xlink:href="#hd"/>
<use x="427.76" y="53.04" xlink:href="#Xhead"/>
<rect style="fill: transparent;" class="abcr" id="abcNoteNum_1_4" x="421.26" y="47.04" width="13.00" height="42.00"/>
<path class="stroke" d="m494.47 65.04v-26.20"/>
<use x="490.97" y="65.04" xlink:href="#hd"/>
<rect style="fill: transparent;" class="abcr" id="abcNoteNum_1_5" x="484.47" y="47.04" width="13.00" height="42.00"/>
<path class="stroke" d="m557.68 77.04v-38.20"/>
<use x="554.18" y="77.04" xlink:href="#hd"/>
<use x="554.18" y="53.04" xlink:href="#Xhead"/>
<rect style="fill: transparent;" class="abcr" id="abcNoteNum_1_6" x="547.68" y="47.04" width="13.00" height="42.00"/>
<path class="fill" d="m620.55 37.84 l127.10 0.00v3.20l-127.10 0.00"/>
<path class="stroke" d="m620.89 77.04v-38.20"/>
<use x="617.39" y="77.04" xlink:href="#hd"/>
<use x="617.39" y="65.04" xlink:href="#hd"/>
<use x="617.39" y="53.04" xlink:href="#Xhead"/>
<rect style="fill: transparent;" class="abcr" id="abcNoteNum_1_7" x="610.89" y="47.04" width="13.00" height="42.00"/>
<use x="680.60" y="68.04" xlink:href="#r8"/>
<path class="stroke" d="m747.31 77.04v-38.20"/>
<use x="743.81" y="77.04" xlink:href="#hd"/>
<use x="743.81" y="53.04" xlink:href="#Xhead"/>
<rect style="fill: transparent;" class="abcr" id="abcNoteNum_1_8" x="737.31" y="47.04" width="13.00" height="42.00"/>
<text style="font:14px serif" x="482.97" y="67.04">(</text>
<text style="font:14px serif" x="494.97" y="67.04">)</text>
<use x="617.39" y="33.34" xlink:href="#opend"/>
</g></svg>