<svg xmlns="http://www.w3.org/2000/svg" xmlns:xlink="http://www.w3.org/1999/xlink" version="1.1" xml:space="preserve" color="black" width="2020.00" height="140.00" viewBox="-8.00 43.20 1616.00 112.00">
  <rect id="white-background" x="-8.00" y="43.20" width="1616.00" height="112.00" fill="white"/>
<title>abc2svg - 6.</title><style type="text/css">
.fill {fill: currentColor}
.stroke {stroke: currentColor; fill: none; stroke-width: .7}
.f1_1 {font:italic 14px serif}
.f2_1 {font:16px calibri}
</style><defs>
<path id="pclef" class="stroke" style="stroke-width:1.4" d="m-4 10h5.4v-20h-5.4v20"/>
<ellipse id="hd" rx="4.1" ry="2.9" transform="rotate(-20)" class="fill"/>
<path id="Xhead" d="m-3,-3 l6,6 m0,-6 l-6,6" class="stroke" style="stroke-width:1.2"/>
</defs><g transform="scale(2)"><path class="stroke" d="m800.00 73.04v-24.00"/>
<path class="stroke" d="m797.00 73.04v-24.00"/>
<path class="stroke" d="m0.00 73.04 h800.00m-800.00 -6h800.00m-800.00 -6h800.00m-800.00 -6h800.00m-800.00 -6h800.00"/>
<use x="12.00" y="61.04" xlink:href="#pclef"/>
<g style="font:bold 16px serif" transform="translate(30.50,73.04) scale(1.2,1)">
	<text y="-12" text-anchor="middle">4</text>
	<text text-anchor="middle">4</text>
</g>
<path class="fill" d="m51.66 28.84 l73.95 0.00v3.20l-73.95 0.00"/>
<path class="stroke" d="m52.00 70.04v-40.20"/>
<use x="48.50" y="70.04" xlink:href="#hd"/>
<use x="48.50" y="46.04" xlink:href="#Xhead"/>
<rect style="fill: transparent;" class="abcr" id="abcNoteNum_1_0" x="42.00" y="40.04" width="13.00" height="42.00"/>
<path class="stroke" d="m125.27 46.04v-16.20"/>
<use x="121.77" y="46.04" xlink:href="#Xhead"/>
<rect style="fill: transparent;" class="abcr" id="abcNoteNum_1_1" x="115.27" y="40.04" width="13.00" height="42.00"/>
<path class="fill" d="m206.34 25.84 l125.73 0.00v3.20l-125.73 0.00"/>
<path class="fill" d="m279.95 30.84 l51.78 0.00v3.20l-51.78 0.00"/>
<path class="stroke" d="m206.68 70.04v-43.20"/>
<use x="203.18" y="70.04" xlink:href="#hd"/>
<use x="203.18" y="58.04" xlink:href="#hd"/>
<use x="203.18" y="46.04" xlink:href="#Xhead"/>
<rect style="fill: transparent;" class="abcr" id="abcNoteNum_1_2" x="196.68" y="40.04" width="13.00" height="42.00"/>
<path class="stroke" d="m279.95 46.04v-19.20"/>
<use x="276.45" y="46.04" xlink:href="#Xhead"/>
<rect style="fill: transparent;" class="abcr" id="abcNoteNum_1_3" x="269.95" y="40.04" width="13.00" height="42.00"/>
<path class="stroke" d="m331.73 46.04v-19.20"/>
<use x="328.23" y="46.04" xlink:href="#Xhead"/>
<rect style="fill: transparent;" class="abcr" id="abcNoteNum_1_4" x="321.73" y="40.04" width="13.00" height="42.00"/>
<path class="fill" d="m388.92 25.84 l156.02 0.00v3.20l-156.02 0.00"/>
<path class="fill" d="m389.26 30.84 l155.34 0.00v3.20l-155.34 0.00"/>
<path class="stroke" d="m389.26 70.04v-43.20"/>
<use x="385.76" y="70.04" xlink:href="#hd"/>
<use x="385.76" y="46.04" xlink:href="#Xhead"/>
<rect style="fill: transparent;" class="abcr" id="abcNoteNum_1_5" x="379.26" y="40.04" width="13.00" height="42.00"/>
<path class="stroke" d="m441.04 58.04v-31.20"/>
<use x="437.54" y="58.04" xlink:href="#hd"/>
<rect style="fill: transparent;" class="abcr" id="abcNoteNum_1_6" x="431.04" y="40.04" width="13.00" height="42.00"/>
<path class="stroke" d="m492.82 46.04v-19.20"/>
<use x="489.32" y="46.04" xlink:href="#Xhead"/>
<rect style="fill: transparent;" class="abcr" id="abcNoteNum_1_7" x="482.82" y="40.04" width="13.00" height="42.00"/>
<path class="stroke" d="m544.60 46.04v-19.20"/>
<use x="541.10" y="46.04" xlink:href="#Xhead"/>
<rect style="fill: transparent;" class="abcr" id="abcNoteNum_1_8" x="534.60" y="40.04" width="13.00" height="42.00"/>
<path class="fill" d="m601.79 25.84 l156.02 0.00v3.20l-156.02 0.00"/>
<path class="fill" d="m602.13 30.84 l155.34 0.00v3.20l-155.34 0.00"/>
<path class="stroke" d="m602.13 70.04v-43.20"/>
<use x="598.63" y="70.04" xlink:href="#hd"/>
<use x="598.63" y="58.04" xlink:href="#hd"/>
<use x="598.63" y="46.04" xlink:href="#Xhead"/>
<rect style="fill: transparent;" class="abcr" id="abcNoteNum_1_9" x="592.13" y="40.04" width="13.00" height="42.00"/>
<path class="stroke" d="m653.91 46.04v-19.20"/>
<use x="650.41" y="46.04" xlink:href="#Xhead"/>
<rect style="fill: transparent;" class="abcr" id="abcNoteNum_1_10" x="643.91" y="40.04" width="13.00" height="42.00"/>
<path class="stroke" d="m705.69 46.04v-19.20"/>
<use x="702.19" y="46.04" xlink:href="#Xhead"/>
<rect style="fill: transparent;" class="abcr" id="abcNoteNum_1_11" x="695.69" y="40.04" width="13.00" height="42.00"/>
<path class="stroke" d="m757.47 46.04v-19.20"/>
<use x="753.97" y="46.04" xlink:href="#Xhead"/>
<rect style="fill: transparent;" class="abcr" id="abcNoteNum_1_12" x="747.47" y="40.04" width="13.00" height="42.00"/>
<text style="font:14px serif" x="429.54" y="60.04">(</text>
<text style="font:14px serif" x="441.54" y="60.04">)</text>
</g></svg>