<svg xmlns="http://www.w3.org/2000/svg" xmlns:xlink="http://www.w3.org/1999/xlink" version="1.1" xml:space="preserve" color="black" width="2020.00" height="153.00" viewBox="-8.00 42.48 1616.00 122.64">
  <rect id="white-background" x="-8.00" y="42.48" width="1616.00" height="122.64" fill="white"/>
<title>abc2svg - 6.</title><style type="text/css">
.fill {fill: currentColor}
.stroke {stroke: currentColor; fill: none; stroke-width: .7}
.f1_1 {font:italic 14px serif}
.f2_1 {font:16px calibri}
</style><defs>
<path id="pclef" class="stroke" style="stroke-width:1.4" d="m-4 10h5.4v-20h-5.4v20"/>
<ellipse id="hd" rx="4.1" ry="2.9" transform="rotate(-20)" class="fill"/>
<path id="Xhead" d="m-3,-3 l6,6 m0,-6 l-6,6" class="stroke" style="stroke-width:1.2"/>
<path id="r8e" class="fill" d="m 0 0  c-1.5 1.5 -2.4 2 -3.6 2  2.4 -2.8 -2.8 -4 -2.8 -1.2  0 2.7 4.3 2.4 5.9 0.6"/>
<g id="r16">
	<path d="m3.3 -4l-4 15.6" class="stroke"/>
	<use x="3.4" y="-4" xlink:href="#r8e"/>
	<use x="1.9" y="2" xlink:href="#r8e"/>
</g>
<circle id="opend" class="stroke" cx="0" cy="-3" r="2.5"/>
</defs><g transform="scale(2)"><path class="stroke" d="m800.00 78.04v-24.00"/>
<path class="stroke" d="m797.00 78.04v-24.00"/>
<path class="stroke" d="m0.00 78.04 h800.00m-800.00 -6h800.00m-800.00 -6h800.00m-800.00 -6h800.00m-800.00 -6h800.00"/>
<use x="12.00" y="66.04" xlink:href="#pclef"/>
<g style="font:bold 16px serif" transform="translate(30.50,78.04) scale(1.2,1)">
	<text y="-12" text-anchor="middle">4</text>
	<text text-anchor="middle">4</text>
</g>
<path class="fill" d="m51.66 35.84 l75.06 0.00v3.20l-75.06 0.00"/>
<path class="stroke" d="m52.00 75.04v-38.20"/>
<use x="48.50" y="75.04" xlink:href="#hd"/>
<rect style="fill: transparent;" class="abcr" id="abcNoteNum_1_0" x="42.00" y="45.04" width="13.00" height="42.00"/>
<path class="stroke" d="m126.38 63.04v-26.20"/>
<use x="122.88" y="63.04" xlink:href="#hd"/>
<use x="122.88" y="51.04" xlink:href="#Xhead"/>
<rect style="fill: transparent;" class="abcr" id="abcNoteNum_1_1" x="116.38" y="45.04" width="13.00" height="42.00"/>
<path class="fill" d="m208.68 34.84 l180.18 0.00v3.20l-180.18 0.00"/>
<path class="fill" d="m209.02 39.84 l179.50 0.00v3.20l-179.50 0.00"/>
<path class="fill" d="m261.58 44.84 l37.19 0.00v3.20l-37.19 0.00"/>
<path class="stroke" d="m209.02 75.04v-39.20"/>
<use x="205.52" y="75.04" xlink:href="#hd"/>
<use x="205.52" y="51.04" xlink:href="#Xhead"/>
<rect style="fill: transparent;" class="abcr" id="abcNoteNum_1_2" x="199.02" y="45.04" width="13.00" height="42.00"/>
<path class="stroke" d="m261.58 63.04v-27.20"/>
<use x="258.08" y="63.04" xlink:href="#hd"/>
<rect style="fill: transparent;" class="abcr" id="abcNoteNum_1_3" x="251.58" y="45.04" width="13.00" height="42.00"/>
<path class="stroke" d="m298.77 63.04v-27.20"/>
<use x="295.27" y="63.04" xlink:href="#hd"/>
<rect style="fill: transparent;" class="abcr" id="abcNoteNum_1_4" x="288.77" y="45.04" width="13.00" height="42.00"/>
<path class="stroke" d="m335.96 63.04v-27.20"/>
<use x="332.46" y="63.04" xlink:href="#hd"/>
<rect style="fill: transparent;" class="abcr" id="abcNoteNum_1_5" x="325.96" y="45.04" width="13.00" height="42.00"/>
<path class="stroke" d="m388.52 75.04v-39.20"/>
<use x="385.02" y="75.04" xlink:href="#hd"/>
<rect style="fill: transparent;" class="abcr" id="abcNoteNum_1_6" x="378.52" y="45.04" width="13.00" height="42.00"/>
<use x="443.42" y="66.04" xlink:href="#r16"/>
<path class="fill" d="m499.14 34.84 l105.81 0.00v3.20l-105.81 0.00"/>
<path class="fill" d="m499.48 39.84 l105.13 0.00v3.20l-105.13 0.00"/>
<path class="stroke" d="m499.48 75.04v-39.20"/>
<use x="495.98" y="75.04" xlink:href="#hd"/>
<rect style="fill: transparent;" class="abcr" id="abcNoteNum_1_7" x="489.48" y="45.04" width="13.00" height="42.00"/>
<path class="stroke" d="m552.05 63.04v-27.20"/>
<use x="548.55" y="63.04" xlink:href="#hd"/>
<use x="548.55" y="51.04" xlink:href="#Xhead"/>
<rect style="fill: transparent;" class="abcr" id="abcNoteNum_1_8" x="542.05" y="45.04" width="13.00" height="42.00"/>
<path class="stroke" d="m604.61 75.04v-39.20"/>
<use x="601.11" y="75.04" xlink:href="#hd"/>
<rect style="fill: transparent;" class="abcr" id="abcNoteNum_1_9" x="594.61" y="45.04" width="13.00" height="42.00"/>
<path class="fill" d="m662.67 35.84 l75.06 0.00v3.20l-75.06 0.00"/>
<path class="stroke" d="m663.01 75.04v-38.20"/>
<use x="659.51" y="75.04" xlink:href="#hd"/>
<use x="659.51" y="51.04" xlink:href="#Xhead"/>
<rect style="fill: transparent;" class="abcr" id="abcNoteNum_1_10" x="653.01" y="45.04" width="13.00" height="42.00"/>
<path class="stroke" d="m737.39 75.04v-38.20"/>
<use x="733.89" y="75.04" xlink:href="#hd"/>
<use x="733.89" y="51.04" xlink:href="#Xhead"/>
<rect style="fill: transparent;" class="abcr" id="abcNoteNum_1_11" x="727.39" y="45.04" width="13.00" height="42.00"/>
<text style="font:14px serif" x="250.08" y="65.04">(</text>
<text style="font:14px serif" x="262.08" y="65.04">)</text>
<text style="font:14px serif" x="287.27" y="65.04">(</text>
<text style="font:14px serif" x="299.27" y="65.04">)</text>
<use x="659.51" y="31.34" xlink:href="#opend"/>
<use x="733.89" y="31.34" xlink:href="#opend"/>
</g></svg>