<svg xmlns="http://www.w3.org/2000/svg" xmlns:xlink="http://www.w3.org/1999/xlink" version="1.1" xml:space="preserve" color="black" width="2020.00" height="162.00" viewBox="-8.00 37.60 1616.00 129.60">
  <rect id="white-background" x="-8.00" y="37.60" width="1616.00" height="129.60" fill="white"/>
<title>abc2svg - 6.</title><style type="text/css">
.fill {fill: currentColor}
.stroke {stroke: currentColor; fill: none; stroke-width: .7}
.f1_1 {font:italic 14px serif}
</style><defs>
<path id="pclef" class="stroke" style="stroke-width:1.4" d="m-4 10h5.4v-20h-5.4v20"/>
<ellipse id="hd" rx="4.1" ry="2.9" transform="rotate(-20)" class="fill"/>
<path id="Xhead" d="m-3,-3 l6,6 m0,-6 l-6,6" class="stroke" style="stroke-width:1.2"/>
<g id="accent" class="stroke">
	<path d="m-4 0l8 -2l-8 -2" style="stroke-width:1.2"/>
</g>
<circle id="opend" class="stroke" cx="0" cy="-3" r="2.5"/>
</defs><g transform="scale(2)"><path class="stroke" d="m800.00 79.04v-24.00"/>
<path class="stroke" d="m797.00 79.04v-24.00"/>
<path class="stroke" d="m0.00 79.04 h800.00m-800.00 -6h800.00m-800.00 -6h800.00m-800.00 -6h800.00m-800.00 -6h800.00"/>
<use x="12.00" y="67.04" xlink:href="#pclef"/>
<g style="font:bold 16px serif" transform="translate(30.50,79.04) scale(1.2,1)">
	<text y="-12" text-anchor="middle">4</text>
	<text text-anchor="middle">4</text>
</g>
<path class="fill" d="m51.66 36.84 l77.28 0.00v3.20l-77.28 0.00"/>
<path class="stroke" d="m52.00 76.04v-38.20"/>
<use x="48.50" y="76.04" xlink:href="#hd"/>
<use x="48.50" y="52.04" xlink:href="#Xhead"/>
<rect style="fill: transparent;" class="abcr" id="abcNoteNum_1_0" x="42.00" y="46.04" width="13.00" height="42.00"/>
<path class="stroke" d="m128.60 64.04v-26.20"/>
<use x="125.10" y="64.04" xlink:href="#hd"/>
<use x="125.10" y="52.04" xlink:href="#Xhead"/>
<rect style="fill: transparent;" class="abcr" id="abcNoteNum_1_1" x="118.60" y="46.04" width="13.00" height="42.00"/>
<path class="fill" d="m213.37 35.84 l163.08 0.00v3.20l-163.08 0.00"/>
<path class="fill" d="m213.71 40.84 l162.40 0.00v3.20l-162.40 0.00"/>
<path class="stroke" d="m213.71 76.04v-39.20"/>
<use x="210.21" y="76.04" xlink:href="#hd"/>
<use x="210.21" y="52.04" xlink:href="#Xhead"/>
<rect style="fill: transparent;" class="abcr" id="abcNoteNum_1_2" x="203.71" y="46.04" width="13.00" height="42.00"/>
<path class="stroke" d="m267.84 64.04v-27.20"/>
<use x="264.34" y="64.04" xlink:href="#hd"/>
<rect style="fill: transparent;" class="abcr" id="abcNoteNum_1_3" x="257.84" y="46.04" width="13.00" height="42.00"/>
<path class="stroke" d="m321.98 64.04v-27.20"/>
<use x="318.48" y="64.04" xlink:href="#hd"/>
<rect style="fill: transparent;" class="abcr" id="abcNoteNum_1_4" x="311.98" y="46.04" width="13.00" height="42.00"/>
<path class="stroke" d="m376.11 76.04v-39.20"/>
<use x="372.61" y="76.04" xlink:href="#hd"/>
<rect style="fill: transparent;" class="abcr" id="abcNoteNum_1_5" x="366.11" y="46.04" width="13.00" height="42.00"/>
<path class="fill" d="m435.92 31.84 l163.08 0.00v3.20l-163.08 0.00"/>
<path class="fill" d="m436.26 36.84 l162.40 0.00v3.20l-162.40 0.00"/>
<path class="stroke" d="m436.26 52.04v-19.20"/>
<use x="432.76" y="52.04" xlink:href="#Xhead"/>
<rect style="fill: transparent;" class="abcr" id="abcNoteNum_1_6" x="426.26" y="46.04" width="13.00" height="42.00"/>
<path class="stroke" d="m490.40 76.04v-43.20"/>
<use x="486.90" y="76.04" xlink:href="#hd"/>
<rect style="fill: transparent;" class="abcr" id="abcNoteNum_1_7" x="480.40" y="46.04" width="13.00" height="42.00"/>
<path class="stroke" d="m544.53 64.04v-31.20"/>
<use x="541.03" y="64.04" xlink:href="#hd"/>
<use x="541.03" y="52.04" xlink:href="#Xhead"/>
<rect style="fill: transparent;" class="abcr" id="abcNoteNum_1_8" x="534.53" y="46.04" width="13.00" height="42.00"/>
<path class="stroke" d="m598.66 76.04v-43.20"/>
<use x="595.16" y="76.04" xlink:href="#hd"/>
<rect style="fill: transparent;" class="abcr" id="abcNoteNum_1_9" x="588.66" y="46.04" width="13.00" height="42.00"/>
<path class="fill" d="m658.47 36.84 l77.28 0.00v3.20l-77.28 0.00"/>
<path class="stroke" d="m658.81 76.04v-38.20"/>
<use x="655.31" y="76.04" xlink:href="#hd"/>
<use x="655.31" y="52.04" xlink:href="#Xhead"/>
<rect style="fill: transparent;" class="abcr" id="abcNoteNum_1_10" x="648.81" y="46.04" width="13.00" height="42.00"/>
<path class="stroke" d="m735.41 76.04v-38.20"/>
<use x="731.91" y="76.04" xlink:href="#hd"/>
<use x="731.91" y="52.04" xlink:href="#Xhead"/>
<rect style="fill: transparent;" class="abcr" id="abcNoteNum_1_11" x="725.41" y="46.04" width="13.00" height="42.00"/>
<use x="125.10" y="32.34" xlink:href="#accent"/>
<use x="541.03" y="27.34" xlink:href="#accent"/>
<use x="655.31" y="32.34" xlink:href="#opend"/>
<use x="731.91" y="32.34" xlink:href="#opend"/>
</g></svg>