<svg xmlns="http://www.w3.org/2000/svg" xmlns:xlink="http://www.w3.org/1999/xlink" version="1.1" xml:space="preserve" color="black" width="2020.00" height="153.00" viewBox="-8.00 42.48 1616.00 122.64">
  <rect id="white-background" x="-8.00" y="42.48" width="1616.00" height="122.64" fill="white"/>
<title>abc2svg - 6.</title><style type="text/css">
.fill {fill: currentColor}
.stroke {stroke: currentColor; fill: none; stroke-width: .7}
.f1_1 {font:italic 14px serif}
</style><defs>
<path id="pclef" class="stroke" style="stroke-width:1.4" d="m-4 10h5.4v-20h-5.4v20"/>
<ellipse id="hd" rx="4.1" ry="2.9" transform="rotate(-20)" class="fill"/>
<path id="Xhead" d="m-3,-3 l6,6 m0,-6 l-6,6" class="stroke" style="stroke-width:1.2"/>
<circle id="opend" class="stroke" cx="0" cy="-3" r="2.5"/>
</defs><g transform="scale(2)"><path class="stroke" d="m800.00 78.04v-24.00"/>
<path class="stroke" d="m797.00 78.04v-24.00"/>
<path class="stroke" d="m0.00 78.04 h800.00m-800.00 -6h800.00m-800.00 -6h800.00m-800.00 -6h800.00m-800.00 -6h800.00"/>
<use x="12.00" y="66.04" xlink:href="#pclef"/>
<g style="font:bold 16px serif" transform="translate(30.50,78.04) scale(1.2,1)">
	<text y="-12" text-anchor="middle">4</text>
	<text text-anchor="middle">4</text>
</g>
<path class="fill" d="m51.66 35.84 l80.37 0.00v3.20l-80.37 0.00"/>
<path class="stroke" d="m52.00 75.04v-38.20"/>
<use x="48.50" y="75.04" xlink:href="#hd"/>
<rect style="fill: transparent;" class="abcr" id="abcNoteNum_1_0" x="42.00" y="45.04" width="13.00" height="42.00"/>
<path class="stroke" d="m131.69 63.04v-26.20"/>
<use x="128.19" y="63.04" xlink:href="#hd"/>
<use x="128.19" y="51.04" xlink:href="#Xhead"/>
<rect style="fill: transparent;" class="abcr" id="abcNoteNum_1_1" x="121.69" y="45.04" width="13.00" height="42.00"/>
<path class="fill" d="m219.90 30.84 l169.64 0.00v3.20l-169.64 0.00"/>
<path class="fill" d="m220.24 35.84 l168.96 0.00v3.20l-168.96 0.00"/>
<path class="stroke" d="m220.24 75.04v-43.20"/>
<use x="216.74" y="75.04" xlink:href="#hd"/>
<rect style="fill: transparent;" class="abcr" id="abcNoteNum_1_2" x="210.24" y="45.04" width="13.00" height="42.00"/>
<path class="stroke" d="m276.56 63.04v-31.20"/>
<use x="273.06" y="63.04" xlink:href="#hd"/>
<rect style="fill: transparent;" class="abcr" id="abcNoteNum_1_3" x="266.56" y="45.04" width="13.00" height="42.00"/>
<path class="stroke" d="m332.88 51.04v-19.20"/>
<use x="329.38" y="51.04" xlink:href="#Xhead"/>
<rect style="fill: transparent;" class="abcr" id="abcNoteNum_1_4" x="322.88" y="45.04" width="13.00" height="42.00"/>
<path class="stroke" d="m389.20 75.04v-43.20"/>
<use x="385.70" y="75.04" xlink:href="#hd"/>
<rect style="fill: transparent;" class="abcr" id="abcNoteNum_1_5" x="379.20" y="45.04" width="13.00" height="42.00"/>
<path class="fill" d="m451.44 33.84 l113.32 0.00v3.20l-113.32 0.00"/>
<path class="fill" d="m451.78 38.84 l56.32 0.00v3.20l-56.32 0.00"/>
<path class="stroke" d="m451.78 63.04v-28.20"/>
<use x="448.28" y="63.04" xlink:href="#hd"/>
<rect style="fill: transparent;" class="abcr" id="abcNoteNum_1_6" x="441.78" y="45.04" width="13.00" height="42.00"/>
<path class="stroke" d="m508.10 75.04v-40.20"/>
<use x="504.60" y="75.04" xlink:href="#hd"/>
<use x="504.60" y="63.04" xlink:href="#hd"/>
<rect style="fill: transparent;" class="abcr" id="abcNoteNum_1_7" x="498.10" y="45.04" width="13.00" height="42.00"/>
<path class="stroke" d="m564.42 51.04v-16.20"/>
<use x="560.92" y="51.04" xlink:href="#Xhead"/>
<rect style="fill: transparent;" class="abcr" id="abcNoteNum_1_8" x="554.42" y="45.04" width="13.00" height="42.00"/>
<path class="fill" d="m652.63 35.84 l80.37 0.00v3.20l-80.37 0.00"/>
<path class="stroke" d="m652.97 75.04v-38.20"/>
<use x="649.47" y="75.04" xlink:href="#hd"/>
<use x="649.47" y="51.04" xlink:href="#Xhead"/>
<rect style="fill: transparent;" class="abcr" id="abcNoteNum_1_9" x="642.97" y="45.04" width="13.00" height="42.00"/>
<path class="stroke" d="m732.66 75.04v-38.20"/>
<use x="729.16" y="75.04" xlink:href="#hd"/>
<use x="729.16" y="51.04" xlink:href="#Xhead"/>
<rect style="fill: transparent;" class="abcr" id="abcNoteNum_1_10" x="722.66" y="45.04" width="13.00" height="42.00"/>
<use x="649.47" y="31.34" xlink:href="#opend"/>
<use x="729.16" y="31.34" xlink:href="#opend"/>
</g></svg>