<svg xmlns="http://www.w3.org/2000/svg" xmlns:xlink="http://www.w3.org/1999/xlink" version="1.1" xml:space="preserve" color="black" width="2020.00" height="153.00" viewBox="-8.00 42.48 1616.00 122.64">
  <rect id="white-background" x="-8.00" y="42.48" width="1616.00" height="122.64" fill="white"/>
<title>abc2svg - 6.</title><style type="text/css">
.fill {fill: currentColor}
.stroke {stroke: currentColor; fill: none; stroke-width: .7}
.f1_1 {font:italic 14px serif}
</style><defs>
<path id="pclef" class="stroke" style="stroke-width:1.4" d="m-4 10h5.4v-20h-5.4v20"/>
<ellipse id="hd" rx="4.1" ry="2.9" transform="rotate(-20)" class="fill"/>
<path id="Xhead" d="m-3,-3 l6,6 m0,-6 l-6,6" class="stroke" style="stroke-width:1.2"/>
<circle id="opend" class="stroke" cx="0" cy="-3" r="2.5"/>
</defs><g transform="scale(2)"><path class="stroke" d="m800.00 78.04v-24.00"/>
<path class="stroke" d="m797.00 78.04v-24.00"/>
<path class="stroke" d="m0.00 78.04 h800.00m-800.00 -6h800.00m-800.00 -6h800.00m-800.00 -6h800.00m-800.00 -6h800.00"/>
<use x="12.00" y="66.04" xlink:href="#pclef"/>
<g style="font:bold 16px serif" transform="translate(30.50,78.04) scale(1.2,1)">
	<text y="-12" text-anchor="middle">4</text>
	<text text-anchor="middle">4</text>
</g>
<path class="fill" d="m51.66 34.84 l126.53 0.00v3.20l-126.53 0.00"/>
<path class="fill" d="m125.74 39.84 l52.11 0.00v3.20l-52.11 0.00"/>
<path class="stroke" d="m52.00 75.04v-39.20"/>
<use x="48.50" y="75.04" xlink:href="#hd"/>
<rect style="fill: transparent;" class="abcr" id="abcNoteNum_1_0" x="42.00" y="45.04" width="13.00" height="42.00"/>
<path class="stroke" d="m125.74 63.04v-27.20"/>
<use x="122.24" y="63.04" xlink:href="#hd"/>
<use x="122.24" y="51.04" xlink:href="#Xhead"/>
<rect style="fill: transparent;" class="abcr" id="abcNoteNum_1_1" x="115.74" y="45.04" width="13.00" height="42.00"/>
<path class="stroke" d="m177.85 75.04v-39.20"/>
<use x="174.35" y="75.04" xlink:href="#hd"/>
<rect style="fill: transparent;" class="abcr" id="abcNoteNum_1_2" x="167.85" y="45.04" width="13.00" height="42.00"/>
<path class="fill" d="m235.41 30.84 l157.01 0.00v3.20l-157.01 0.00"/>
<path class="fill" d="m235.75 35.84 l156.33 0.00v3.20l-156.33 0.00"/>
<path class="stroke" d="m235.75 51.04v-19.20"/>
<use x="232.25" y="51.04" xlink:href="#Xhead"/>
<rect style="fill: transparent;" class="abcr" id="abcNoteNum_1_3" x="225.75" y="45.04" width="13.00" height="42.00"/>
<path class="stroke" d="m287.86 63.04v-31.20"/>
<use x="284.36" y="63.04" xlink:href="#hd"/>
<rect style="fill: transparent;" class="abcr" id="abcNoteNum_1_4" x="277.86" y="45.04" width="13.00" height="42.00"/>
<path class="stroke" d="m339.97 63.04v-31.20"/>
<use x="336.47" y="63.04" xlink:href="#hd"/>
<rect style="fill: transparent;" class="abcr" id="abcNoteNum_1_5" x="329.97" y="45.04" width="13.00" height="42.00"/>
<path class="stroke" d="m392.08 75.04v-43.20"/>
<use x="388.58" y="75.04" xlink:href="#hd"/>
<rect style="fill: transparent;" class="abcr" id="abcNoteNum_1_6" x="382.08" y="45.04" width="13.00" height="42.00"/>
<path class="fill" d="m449.64 30.84 l157.01 0.00v3.20l-157.01 0.00"/>
<path class="fill" d="m449.98 35.84 l156.33 0.00v3.20l-156.33 0.00"/>
<path class="stroke" d="m449.98 63.04v-31.20"/>
<use x="446.48" y="63.04" xlink:href="#hd"/>
<rect style="fill: transparent;" class="abcr" id="abcNoteNum_1_7" x="439.98" y="45.04" width="13.00" height="42.00"/>
<path class="stroke" d="m502.10 75.04v-43.20"/>
<use x="498.60" y="75.04" xlink:href="#hd"/>
<use x="498.60" y="63.04" xlink:href="#hd"/>
<rect style="fill: transparent;" class="abcr" id="abcNoteNum_1_8" x="492.10" y="45.04" width="13.00" height="42.00"/>
<path class="stroke" d="m554.21 51.04v-19.20"/>
<use x="550.71" y="51.04" xlink:href="#Xhead"/>
<rect style="fill: transparent;" class="abcr" id="abcNoteNum_1_9" x="544.21" y="45.04" width="13.00" height="42.00"/>
<path class="stroke" d="m606.32 75.04v-43.20"/>
<use x="602.82" y="75.04" xlink:href="#hd"/>
<rect style="fill: transparent;" class="abcr" id="abcNoteNum_1_10" x="596.32" y="45.04" width="13.00" height="42.00"/>
<path class="fill" d="m663.88 35.84 l74.42 0.00v3.20l-74.42 0.00"/>
<path class="stroke" d="m664.22 75.04v-38.20"/>
<use x="660.72" y="75.04" xlink:href="#hd"/>
<use x="660.72" y="51.04" xlink:href="#Xhead"/>
<rect style="fill: transparent;" class="abcr" id="abcNoteNum_1_11" x="654.22" y="45.04" width="13.00" height="42.00"/>
<path class="stroke" d="m737.96 75.04v-38.20"/>
<use x="734.46" y="75.04" xlink:href="#hd"/>
<use x="734.46" y="51.04" xlink:href="#Xhead"/>
<rect style="fill: transparent;" class="abcr" id="abcNoteNum_1_12" x="727.96" y="45.04" width="13.00" height="42.00"/>
<use x="660.72" y="31.34" xlink:href="#opend"/>
<use x="734.46" y="31.34" xlink:href="#opend"/>
</g></svg>