<svg xmlns="http://www.w3.org/2000/svg" xmlns:xlink="http://www.w3.org/1999/xlink" version="1.1" xml:space="preserve" color="black" width="2020.00" height="181.00" viewBox="-8.00 42.36 1616.00 144.66">
  <rect id="white-background" x="-8.00" y="42.36" width="1616.00" height="144.66" fill="white"/>
<title>abc2svg - 6.</title><style type="text/css">
.fill {fill: currentColor}
.stroke {stroke: currentColor; fill: none; stroke-width: .7}
.f1_1 {font:italic 14px serif}
.f2_1 {font:16px calibri}
</style><defs>
<path id="pclef" class="stroke" style="stroke-width:1.4" d="m-4 10h5.4v-20h-5.4v20"/>
<ellipse id="hd" rx="4.1" ry="2.9" transform="rotate(-20)" class="fill"/>
<path id="Xhead" d="m-3,-3 l6,6 m0,-6 l-6,6" class="stroke" style="stroke-width:1.2"/>
<g id="accent" class="stroke">
	<path d="m-4 0l8 -2l-8 -2" style="stroke-width:1.2"/>
</g>
<circle id="opend" class="stroke" cx="0" cy="-3" r="2.5"/>
</defs><g transform="scale(2)"><path class="stroke" d="m800.00 83.04v-24.00"/>
<path class="stroke" d="m797.00 83.04v-24.00"/>
<path class="stroke" d="m0.00 83.04 h800.00m-800.00 -6h800.00m-800.00 -6h800.00m-800.00 -6h800.00m-800.00 -6h800.00"/>
<use x="12.00" y="71.04" xlink:href="#pclef"/>
<g style="font:bold 16px serif" transform="translate(30.50,83.04) scale(1.2,1)">
	<text y="-12" text-anchor="middle">4</text>
	<text text-anchor="middle">4</text>
</g>
<path class="fill" d="m51.66 35.84 l145.28 0.00v3.20l-145.28 0.00"/>
<path class="fill" d="m52.00 40.84 l144.60 0.00v3.20l-144.60 0.00"/>
<path class="stroke" d="m52.00 80.04v-43.20"/>
<use x="48.50" y="80.04" xlink:href="#hd"/>
<rect style="fill: transparent;" class="abcr" id="abcNoteNum_1_0" x="42.00" y="50.04" width="13.00" height="42.00"/>
<path class="stroke" d="m100.20 56.04v-19.20"/>
<use x="96.70" y="56.04" xlink:href="#Xhead"/>
<rect style="fill: transparent;" class="abcr" id="abcNoteNum_1_1" x="90.20" y="50.04" width="13.00" height="42.00"/>
<path class="stroke" d="m148.40 56.04v-19.20"/>
<use x="144.90" y="56.04" xlink:href="#Xhead"/>
<rect style="fill: transparent;" class="abcr" id="abcNoteNum_1_2" x="138.40" y="50.04" width="13.00" height="42.00"/>
<path class="stroke" d="m196.60 80.04v-43.20"/>
<use x="193.10" y="80.04" xlink:href="#hd"/>
<rect style="fill: transparent;" class="abcr" id="abcNoteNum_1_3" x="186.60" y="50.04" width="13.00" height="42.00"/>
<path class="fill" d="m249.82 35.84 l145.28 0.00v3.20l-145.28 0.00"/>
<path class="fill" d="m250.16 40.84 l144.60 0.00v3.20l-144.60 0.00"/>
<path class="stroke" d="m250.16 68.04v-31.20"/>
<use x="246.66" y="68.04" xlink:href="#hd"/>
<use x="246.66" y="56.04" xlink:href="#Xhead"/>
<rect style="fill: transparent;" class="abcr" id="abcNoteNum_1_4" x="240.16" y="50.04" width="13.00" height="42.00"/>
<path class="stroke" d="m298.36 80.04v-43.20"/>
<use x="294.86" y="80.04" xlink:href="#hd"/>
<rect style="fill: transparent;" class="abcr" id="abcNoteNum_1_5" x="288.36" y="50.04" width="13.00" height="42.00"/>
<path class="stroke" d="m346.56 56.04v-19.20"/>
<use x="343.06" y="56.04" xlink:href="#Xhead"/>
<rect style="fill: transparent;" class="abcr" id="abcNoteNum_1_6" x="336.56" y="50.04" width="13.00" height="42.00"/>
<path class="stroke" d="m394.76 68.04v-31.20"/>
<text style="font:14px serif" x="383.26" y="71.04">(</text>
<text style="font:14px serif" x="395.26" y="71.04">)</text>
<use x="391.26" y="68.04" xlink:href="#hd"/>
<use x="391.26" y="56.04" xlink:href="#Xhead"/>
<rect style="fill: transparent;" class="abcr" id="abcNoteNum_1_7" x="384.76" y="50.04" width="13.00" height="42.00"/>
<path class="fill" d="m447.98 35.84 l145.28 0.00v3.20l-145.28 0.00"/>
<path class="fill" d="m448.32 40.84 l144.60 0.00v3.20l-144.60 0.00"/>
<path class="stroke" d="m448.32 86.04v-49.20"/>
<use x="444.82" y="86.04" xlink:href="#Xhead"/>
<use x="444.82" y="80.04" xlink:href="#hd"/>
<rect style="fill: transparent;" class="abcr" id="abcNoteNum_1_8" x="438.32" y="50.04" width="13.00" height="42.00"/>
<path class="stroke" d="m496.52 80.04v-43.20"/>
<use x="493.02" y="80.04" xlink:href="#hd"/>
<use x="493.02" y="56.04" xlink:href="#Xhead"/>
<rect style="fill: transparent;" class="abcr" id="abcNoteNum_1_9" x="486.52" y="50.04" width="13.00" height="42.00"/>
<path class="stroke" d="m544.72 56.04v-19.20"/>
<use x="541.22" y="56.04" xlink:href="#Xhead"/>
<rect style="fill: transparent;" class="abcr" id="abcNoteNum_1_10" x="534.72" y="50.04" width="13.00" height="42.00"/>
<path class="stroke" d="m592.92 80.04v-43.20"/>
<use x="589.42" y="80.04" xlink:href="#hd"/>
<rect style="fill: transparent;" class="abcr" id="abcNoteNum_1_11" x="582.92" y="50.04" width="13.00" height="42.00"/>
<path class="fill" d="m646.13 39.84 l97.08 0.00v3.20l-97.08 0.00"/>
<path class="fill" d="m646.47 44.84 l48.20 0.00v3.20l-48.20 0.00"/>
<path class="stroke" d="m646.47 68.04v-27.20"/>
<use x="642.97" y="68.04" xlink:href="#hd"/>
<use x="642.97" y="56.04" xlink:href="#Xhead"/>
<rect style="fill: transparent;" class="abcr" id="abcNoteNum_1_12" x="636.47" y="50.04" width="13.00" height="42.00"/>
<path class="stroke" d="m694.67 80.04v-39.20"/>
<use x="691.17" y="80.04" xlink:href="#hd"/>
<rect style="fill: transparent;" class="abcr" id="abcNoteNum_1_13" x="684.67" y="50.04" width="13.00" height="42.00"/>
<path class="stroke" d="m742.87 68.04v-27.20"/>
<use x="739.37" y="68.04" xlink:href="#hd"/>
<use x="739.37" y="56.04" xlink:href="#Xhead"/>
<rect style="fill: transparent;" class="abcr" id="abcNoteNum_1_14" x="732.87" y="50.04" width="13.00" height="42.00"/>
<use x="144.90" y="31.34" xlink:href="#accent"/>
<use x="391.26" y="31.34" xlink:href="#opend"/>
<use x="541.22" y="31.34" xlink:href="#accent"/>
<use x="642.97" y="35.34" xlink:href="#accent"/>
<use x="739.37" y="35.34" xlink:href="#accent"/>
</g></svg>