<svg xmlns="http://www.w3.org/2000/svg" xmlns:xlink="http://www.w3.org/1999/xlink" version="1.1" xml:space="preserve" color="black" width="2020.00" height="162.00" viewBox="-8.00 37.60 1616.00 129.60">
  <rect id="white-background" x="-8.00" y="37.60" width="1616.00" height="129.60" fill="white"/>
<title>abc2svg - 6.</title><style type="text/css">
.fill {fill: currentColor}
.stroke {stroke: currentColor; fill: none; stroke-width: .7}
.f1_1 {font:italic 14px serif}
.f2_1 {font:16px calibri}
</style><defs>
<path id="pclef" class="stroke" style="stroke-width:1.4" d="m-4 10h5.4v-20h-5.4v20"/>
<ellipse id="hd" rx="4.1" ry="2.9" transform="rotate(-20)" class="fill"/>
<path id="Xhead" d="m-3,-3 l6,6 m0,-6 l-6,6" class="stroke" style="stroke-width:1.2"/>
<g id="accent" class="stroke">
	<path d="m-4 0l8 -2l-8 -2" style="stroke-width:1.2"/>
</g>
</defs><g transform="scale(2)"><path class="stroke" d="m800.00 79.04v-24.00"/>
<path class="stroke" d="m797.00 79.04v-24.00"/>
<path class="stroke" d="m0.00 79.04 h800.00m-800.00 -6h800.00m-800.00 -6h800.00m-800.00 -6h800.00m-800.00 -6h800.00"/>
<use x="12.00" y="67.04" xlink:href="#pclef"/>
<g style="font:bold 16px serif" transform="translate(30.50,79.04) scale(1.2,1)">
	<text y="-12" text-anchor="middle">4</text>
	<text text-anchor="middle">4</text>
</g>
<path class="fill" d="m51.66 31.84 l139.66 0.00v3.20l-139.66 0.00"/>
<path class="fill" d="m52.00 36.84 l138.98 0.00v3.20l-138.98 0.00"/>
<path class="stroke" d="m52.00 76.04v-43.20"/>
<use x="48.50" y="76.04" xlink:href="#hd"/>
<use x="48.50" y="52.04" xlink:href="#Xhead"/>
<rect style="fill: transparent;" class="abcr" id="abcNoteNum_1_0" x="42.00" y="46.04" width="13.00" height="42.00"/>
<path class="stroke" d="m98.33 52.04v-19.20"/>
<use x="94.83" y="52.04" xlink:href="#Xhead"/>
<rect style="fill: transparent;" class="abcr" id="abcNoteNum_1_1" x="88.33" y="46.04" width="13.00" height="42.00"/>
<path class="stroke" d="m144.65 76.04v-43.20"/>
<use x="141.15" y="76.04" xlink:href="#hd"/>
<use x="141.15" y="52.04" xlink:href="#Xhead"/>
<rect style="fill: transparent;" class="abcr" id="abcNoteNum_1_2" x="134.65" y="46.04" width="13.00" height="42.00"/>
<path class="stroke" d="m190.98 64.04v-31.20"/>
<text style="font:14px serif" x="179.48" y="67.04">(</text>
<text style="font:14px serif" x="191.48" y="67.04">)</text>
<use x="187.48" y="64.04" xlink:href="#hd"/>
<use x="187.48" y="52.04" xlink:href="#Xhead"/>
<rect style="fill: transparent;" class="abcr" id="abcNoteNum_1_3" x="180.98" y="46.04" width="13.00" height="42.00"/>
<path class="fill" d="m242.11 35.84 l139.66 0.00v3.20l-139.66 0.00"/>
<path class="fill" d="m242.45 40.84 l138.98 0.00v3.20l-138.98 0.00"/>
<path class="stroke" d="m242.45 64.04v-27.20"/>
<text style="font:14px serif" x="230.95" y="67.04">(</text>
<text style="font:14px serif" x="242.95" y="67.04">)</text>
<use x="238.95" y="64.04" xlink:href="#hd"/>
<use x="238.95" y="52.04" xlink:href="#Xhead"/>
<rect style="fill: transparent;" class="abcr" id="abcNoteNum_1_4" x="232.45" y="46.04" width="13.00" height="42.00"/>
<path class="stroke" d="m288.77 76.04v-39.20"/>
<use x="285.27" y="76.04" xlink:href="#hd"/>
<use x="285.27" y="52.04" xlink:href="#Xhead"/>
<rect style="fill: transparent;" class="abcr" id="abcNoteNum_1_5" x="278.77" y="46.04" width="13.00" height="42.00"/>
<path class="stroke" d="m335.10 64.04v-27.20"/>
<text style="font:14px serif" x="323.60" y="67.04">(</text>
<text style="font:14px serif" x="335.60" y="67.04">)</text>
<use x="331.60" y="64.04" xlink:href="#hd"/>
<use x="331.60" y="52.04" xlink:href="#Xhead"/>
<rect style="fill: transparent;" class="abcr" id="abcNoteNum_1_6" x="325.10" y="46.04" width="13.00" height="42.00"/>
<path class="stroke" d="m381.42 64.04v-27.20"/>
<text style="font:14px serif" x="369.92" y="67.04">(</text>
<text style="font:14px serif" x="381.92" y="67.04">)</text>
<use x="377.92" y="64.04" xlink:href="#hd"/>
<use x="377.92" y="52.04" xlink:href="#Xhead"/>
<rect style="fill: transparent;" class="abcr" id="abcNoteNum_1_7" x="371.42" y="46.04" width="13.00" height="42.00"/>
<path class="fill" d="m432.56 31.84 l139.66 0.00v3.20l-139.66 0.00"/>
<path class="fill" d="m432.90 36.84 l138.98 0.00v3.20l-138.98 0.00"/>
<path class="stroke" d="m432.90 76.04v-43.20"/>
<use x="429.40" y="76.04" xlink:href="#hd"/>
<use x="429.40" y="52.04" xlink:href="#Xhead"/>
<rect style="fill: transparent;" class="abcr" id="abcNoteNum_1_8" x="422.90" y="46.04" width="13.00" height="42.00"/>
<path class="stroke" d="m479.22 64.04v-31.20"/>
<text style="font:14px serif" x="467.72" y="67.04">(</text>
<text style="font:14px serif" x="479.72" y="67.04">)</text>
<use x="475.72" y="64.04" xlink:href="#hd"/>
<use x="475.72" y="52.04" xlink:href="#Xhead"/>
<rect style="fill: transparent;" class="abcr" id="abcNoteNum_1_9" x="469.22" y="46.04" width="13.00" height="42.00"/>
<path class="stroke" d="m525.55 52.04v-19.20"/>
<use x="522.05" y="52.04" xlink:href="#Xhead"/>
<rect style="fill: transparent;" class="abcr" id="abcNoteNum_1_10" x="515.55" y="46.04" width="13.00" height="42.00"/>
<path class="stroke" d="m571.87 52.04v-19.20"/>
<use x="568.37" y="52.04" xlink:href="#Xhead"/>
<rect style="fill: transparent;" class="abcr" id="abcNoteNum_1_11" x="561.87" y="46.04" width="13.00" height="42.00"/>
<path class="fill" d="m623.01 31.84 l139.66 0.00v3.20l-139.66 0.00"/>
<path class="fill" d="m623.35 36.84 l138.98 0.00v3.20l-138.98 0.00"/>
<path class="stroke" d="m623.35 64.04v-31.20"/>
<use x="619.85" y="64.04" xlink:href="#hd"/>
<use x="619.85" y="52.04" xlink:href="#Xhead"/>
<rect style="fill: transparent;" class="abcr" id="abcNoteNum_1_12" x="613.35" y="46.04" width="13.00" height="42.00"/>
<path class="stroke" d="m669.67 52.04v-19.20"/>
<use x="666.17" y="52.04" xlink:href="#Xhead"/>
<rect style="fill: transparent;" class="abcr" id="abcNoteNum_1_13" x="659.67" y="46.04" width="13.00" height="42.00"/>
<path class="stroke" d="m716.00 52.04v-19.20"/>
<use x="712.50" y="52.04" xlink:href="#Xhead"/>
<rect style="fill: transparent;" class="abcr" id="abcNoteNum_1_14" x="706.00" y="46.04" width="13.00" height="42.00"/>
<path class="stroke" d="m762.32 52.04v-19.20"/>
<use x="758.82" y="52.04" xlink:href="#Xhead"/>
<rect style="fill: transparent;" class="abcr" id="abcNoteNum_1_15" x="752.32" y="46.04" width="13.00" height="42.00"/>
<use x="48.50" y="27.34" xlink:href="#accent"/>
<use x="141.15" y="27.34" xlink:href="#accent"/>
<use x="285.27" y="31.34" xlink:href="#accent"/>
<use x="429.40" y="27.34" xlink:href="#accent"/>
<use x="619.85" y="27.34" xlink:href="#accent"/>
</g></svg>