<svg xmlns="http://www.w3.org/2000/svg" xmlns:xlink="http://www.w3.org/1999/xlink" version="1.1" xml:space="preserve" color="black" width="2020.00" height="162.00" viewBox="-8.00 37.60 1616.00 129.60">
  <rect id="white-background" x="-8.00" y="37.60" width="1616.00" height="129.60" fill="white"/>
<title>abc2svg - 6.</title><style type="text/css">
.fill {fill: currentColor}
.stroke {stroke: currentColor; fill: none; stroke-width: .7}
.f1_1 {font:italic 14px serif}
.f2_1 {font:16px calibri}
</style><defs>
<path id="pclef" class="stroke" style="stroke-width:1.4" d="m-4 10h5.4v-20h-5.4v20"/>
<ellipse id="hd" rx="4.1" ry="2.9" transform="rotate(-20)" class="fill"/>
<path id="Xhead" d="m-3,-3 l6,6 m0,-6 l-6,6" class="stroke" style="stroke-width:1.2"/>
<g id="accent" class="stroke">
	<path d="m-4 0l8 -2l-8 -2" style="stroke-width:1.2"/>
</g>
</defs><g transform="scale(2)"><path class="stroke" d="m800.00 79.04v-24.00"/>
<path class="stroke" d="m797.00 79.04v-24.00"/>
<path class="stroke" d="m0.00 79.04 h800.00m-800.00 -6h800.00m-800.00 -6h800.00m-800.00 -6h800.00m-800.00 -6h800.00"/>
<use x="12.00" y="67.04" xlink:href="#pclef"/>
<g style="font:bold 16px serif" transform="translate(30.50,79.04) scale(1.2,1)">
	<text y="-12" text-anchor="middle">4</text>
	<text text-anchor="middle">4</text>
</g>
<path class="fill" d="m51.66 35.84 l135.93 0.00v3.20l-135.93 0.00"/>
<path class="fill" d="m52.00 40.84 l135.25 0.00v3.20l-135.25 0.00"/>
<path class="stroke" d="m52.00 76.04v-39.20"/>
<use x="48.50" y="76.04" xlink:href="#hd"/>
<use x="48.50" y="52.04" xlink:href="#Xhead"/>
<rect style="fill: transparent;" class="abcr" id="abcNoteNum_1_0" x="42.00" y="46.04" width="13.00" height="42.00"/>
<path class="stroke" d="m97.08 64.04v-27.20"/>
<text style="font:14px serif" x="85.58" y="67.04">(</text>
<text style="font:14px serif" x="97.58" y="67.04">)</text>
<use x="93.58" y="64.04" xlink:href="#hd"/>
<use x="93.58" y="52.04" xlink:href="#Xhead"/>
<rect style="fill: transparent;" class="abcr" id="abcNoteNum_1_1" x="87.08" y="46.04" width="13.00" height="42.00"/>
<path class="stroke" d="m142.16 76.04v-39.20"/>
<use x="138.66" y="76.04" xlink:href="#hd"/>
<use x="138.66" y="52.04" xlink:href="#Xhead"/>
<rect style="fill: transparent;" class="abcr" id="abcNoteNum_1_2" x="132.16" y="46.04" width="13.00" height="42.00"/>
<path class="stroke" d="m187.25 64.04v-27.20"/>
<text style="font:14px serif" x="175.75" y="67.04">(</text>
<text style="font:14px serif" x="187.75" y="67.04">)</text>
<use x="183.75" y="64.04" xlink:href="#hd"/>
<use x="183.75" y="52.04" xlink:href="#Xhead"/>
<rect style="fill: transparent;" class="abcr" id="abcNoteNum_1_3" x="177.25" y="46.04" width="13.00" height="42.00"/>
<path class="fill" d="m237.00 35.84 l135.93 0.00v3.20l-135.93 0.00"/>
<path class="fill" d="m237.34 40.84 l135.25 0.00v3.20l-135.25 0.00"/>
<path class="stroke" d="m237.34 64.04v-27.20"/>
<text style="font:14px serif" x="225.84" y="67.04">(</text>
<text style="font:14px serif" x="237.84" y="67.04">)</text>
<use x="233.84" y="64.04" xlink:href="#hd"/>
<use x="233.84" y="52.04" xlink:href="#Xhead"/>
<rect style="fill: transparent;" class="abcr" id="abcNoteNum_1_4" x="227.34" y="46.04" width="13.00" height="42.00"/>
<path class="stroke" d="m282.42 76.04v-39.20"/>
<use x="278.92" y="76.04" xlink:href="#hd"/>
<use x="278.92" y="52.04" xlink:href="#Xhead"/>
<rect style="fill: transparent;" class="abcr" id="abcNoteNum_1_5" x="272.42" y="46.04" width="13.00" height="42.00"/>
<path class="stroke" d="m327.50 64.04v-27.20"/>
<text style="font:14px serif" x="316.00" y="67.04">(</text>
<text style="font:14px serif" x="328.00" y="67.04">)</text>
<use x="324.00" y="64.04" xlink:href="#hd"/>
<use x="324.00" y="52.04" xlink:href="#Xhead"/>
<rect style="fill: transparent;" class="abcr" id="abcNoteNum_1_6" x="317.50" y="46.04" width="13.00" height="42.00"/>
<path class="stroke" d="m372.58 64.04v-27.20"/>
<text style="font:14px serif" x="361.08" y="67.04">(</text>
<text style="font:14px serif" x="373.08" y="67.04">)</text>
<use x="369.08" y="64.04" xlink:href="#hd"/>
<use x="369.08" y="52.04" xlink:href="#Xhead"/>
<rect style="fill: transparent;" class="abcr" id="abcNoteNum_1_7" x="362.58" y="46.04" width="13.00" height="42.00"/>
<path class="fill" d="m422.33 31.84 l135.93 0.00v3.20l-135.93 0.00"/>
<path class="fill" d="m422.67 36.84 l135.25 0.00v3.20l-135.25 0.00"/>
<path class="stroke" d="m422.67 76.04v-43.20"/>
<use x="419.17" y="76.04" xlink:href="#hd"/>
<use x="419.17" y="52.04" xlink:href="#Xhead"/>
<rect style="fill: transparent;" class="abcr" id="abcNoteNum_1_8" x="412.67" y="46.04" width="13.00" height="42.00"/>
<path class="stroke" d="m467.75 64.04v-31.20"/>
<text style="font:14px serif" x="456.25" y="67.04">(</text>
<text style="font:14px serif" x="468.25" y="67.04">)</text>
<use x="464.25" y="64.04" xlink:href="#hd"/>
<use x="464.25" y="52.04" xlink:href="#Xhead"/>
<rect style="fill: transparent;" class="abcr" id="abcNoteNum_1_9" x="457.75" y="46.04" width="13.00" height="42.00"/>
<path class="stroke" d="m512.84 52.04v-19.20"/>
<use x="509.34" y="52.04" xlink:href="#Xhead"/>
<rect style="fill: transparent;" class="abcr" id="abcNoteNum_1_10" x="502.84" y="46.04" width="13.00" height="42.00"/>
<path class="stroke" d="m557.92 52.04v-19.20"/>
<use x="554.42" y="52.04" xlink:href="#Xhead"/>
<rect style="fill: transparent;" class="abcr" id="abcNoteNum_1_11" x="547.92" y="46.04" width="13.00" height="42.00"/>
<path class="fill" d="m607.67 31.84 l167.82 0.00v3.20l-167.82 0.00"/>
<path class="fill" d="m608.01 36.84 l167.14 0.00v3.20l-167.14 0.00"/>
<path class="fill" d="m743.25 41.84 l31.90 0.00v3.20l-31.90 0.00"/>
<path class="stroke" d="m608.01 64.04v-31.20"/>
<use x="604.51" y="64.04" xlink:href="#hd"/>
<use x="604.51" y="52.04" xlink:href="#Xhead"/>
<rect style="fill: transparent;" class="abcr" id="abcNoteNum_1_12" x="598.01" y="46.04" width="13.00" height="42.00"/>
<path class="stroke" d="m653.09 52.04v-19.20"/>
<use x="649.59" y="52.04" xlink:href="#Xhead"/>
<rect style="fill: transparent;" class="abcr" id="abcNoteNum_1_13" x="643.09" y="46.04" width="13.00" height="42.00"/>
<path class="stroke" d="m698.17 52.04v-19.20"/>
<use x="694.67" y="52.04" xlink:href="#Xhead"/>
<rect style="fill: transparent;" class="abcr" id="abcNoteNum_1_14" x="688.17" y="46.04" width="13.00" height="42.00"/>
<path class="stroke" d="m743.25 64.04v-31.20"/>
<text style="font:14px serif" x="731.75" y="67.04">(</text>
<text style="font:14px serif" x="743.75" y="67.04">)</text>
<use x="739.75" y="64.04" xlink:href="#hd"/>
<use x="739.75" y="52.04" xlink:href="#Xhead"/>
<rect style="fill: transparent;" class="abcr" id="abcNoteNum_1_15" x="733.25" y="46.04" width="13.00" height="42.00"/>
<path class="stroke" d="m775.15 64.04v-31.20"/>
<use x="771.65" y="64.04" xlink:href="#hd"/>
<rect style="fill: transparent;" class="abcr" id="abcNoteNum_1_16" x="765.15" y="46.04" width="13.00" height="42.00"/>
<use x="48.50" y="31.34" xlink:href="#accent"/>
<use x="138.66" y="31.34" xlink:href="#accent"/>
<use x="278.92" y="31.34" xlink:href="#accent"/>
<use x="419.17" y="27.34" xlink:href="#accent"/>
<use x="604.51" y="27.34" xlink:href="#accent"/>
<text style="font:14px serif" x="763.65" y="66.04">(</text>
<text style="font:14px serif" x="775.65" y="66.04">)</text>
</g></svg>